<svg class="z-0 absolute top-0 left-0  right-0 bottom-0 text-scheme-background h-full w-full text-scheme-background   -scale-x-[1] " data-color-scheme="primary" width="100%" height="100%" viewBox="0 0 1200.0 43.0" fill="none" xmlns="http://www.w3.org/2000/svg"><path d="M1200 20.0001C1150 40.0001 1100 40.0001 1050 20.0001C1000 8.10623e-05 950 7.72476e-05 900 20.0001C850 40.0001 800 40.0001 750 20.0001C700 5.43594e-05 650 5.05447e-05 600 20C550 40 500 40 450 20C400 2.76566e-05 350 2.38419e-05 300 20C250 40 200 40 150 20C100 2.86102e-06 50 -2.86102e-06 2.18557e-05 20L0 43.0001H1200V20.0001Z" fill="currentColor"/>
          <path class="shape-divider-stroke" vector-effect="non-scaling-stroke" d="M1201 20.0001C1151 40.0001 1101 40.0001 1051 20.0001C1001 8.10623e-05 951 7.72476e-05 901 20.0001C851 40.0001 801 40.0001 751 20.0001C701 5.43594e-05 651 5.05447e-05 601 20C551 40 501 40 451 20C401 2.76566e-05 351 2.38419e-05 301 20C251 40 201 40 151 20C101 2.86102e-06 51 -2.86102e-06 1 20" stroke="black"/></svg>