<svg width="0" height="0" viewBox="0 0 200 200">
  <defs>
    <clipPath id="clip-index-template--25952795918642__16508915343a7fad54" clipPathUnits="objectBoundingBox">
      <path clip-rule="evenodd" transform="scale(0.005,0.005)" d="M100.5 3L112.702 23.4603L130.629 7.77199L135.911 31.0015L157.809 21.6208L155.654 45.3457L179.379 43.1909L169.999 65.0887L193.228 70.3708L177.54 88.2981L198 100.5L177.54 112.702L193.228 130.629L169.999 135.911L179.379 157.809L155.654 155.654L157.809 179.379L135.911 169.999L130.629 193.228L112.702 177.54L100.5 198L88.2981 177.54L70.3708 193.228L65.0887 169.999L43.1909 179.379L45.3457 155.654L21.6208 157.809L31.0015 135.911L7.77199 130.629L23.4603 112.702L3 100.5L23.4603 88.2981L7.77199 70.3708L31.0015 65.0887L21.6208 43.1909L45.3457 45.3457L43.1909 21.6208L65.0887 31.0015L70.3708 7.77199L88.2981 23.4603L100.5 3Z" fill="black"/>
    </clipPath>
    <path id="outline-index-template--25952795918642__16508915343a7fad54" vector-effect="non-scaling-stroke"  d="M100.5 3L112.702 23.4603L130.629 7.77199L135.911 31.0015L157.809 21.6208L155.654 45.3457L179.379 43.1909L169.999 65.0887L193.228 70.3708L177.54 88.2981L198 100.5L177.54 112.702L193.228 130.629L169.999 135.911L179.379 157.809L155.654 155.654L157.809 179.379L135.911 169.999L130.629 193.228L112.702 177.54L100.5 198L88.2981 177.54L70.3708 193.228L65.0887 169.999L43.1909 179.379L45.3457 155.654L21.6208 157.809L31.0015 135.911L7.77199 130.629L23.4603 112.702L3 100.5L23.4603 88.2981L7.77199 70.3708L31.0015 65.0887L21.6208 43.1909L45.3457 45.3457L43.1909 21.6208L65.0887 31.0015L70.3708 7.77199L88.2981 23.4603L100.5 3Z" />
  </defs>
</svg>