<svg width="0" height="0" viewBox="0 0 200 200">
  <defs>
    <clipPath id="clip-metafield-badge" clipPathUnits="objectBoundingBox">
      <path clip-rule="evenodd" transform="scale(0.005,0.005)" d="M198 100.502C198 110.547 187.924 118.889 184.983 127.959C181.888 137.354 185.076 149.999 179.381 157.815C173.685 165.631 160.591 166.606 152.698 172.364C144.804 178.121 140.022 190.209 130.627 193.258C121.557 196.199 110.506 189.312 100.492 189.312C90.4784 189.312 79.4584 196.168 70.3422 193.258C60.9474 190.163 56.103 178.059 48.2869 172.364C40.4708 166.668 27.346 165.708 21.6039 157.815C15.8618 149.922 19.0965 137.354 16.0011 127.959C13.0604 118.889 3 110.547 3 100.502C3 90.4573 13.0604 82.115 16.0011 73.0452C19.0965 63.6349 16.0011 51.0054 21.6194 43.1738C27.2377 35.3422 40.3935 34.3826 48.3024 28.625C56.2114 22.8674 60.9629 10.795 70.3577 7.73051C79.4275 4.7898 90.4783 11.6773 100.508 11.6773C110.537 11.6773 121.573 4.7898 130.642 7.73051C140.037 10.826 144.882 22.9448 152.713 28.625C160.545 34.3052 173.639 35.2803 179.396 43.1738C185.154 51.0673 181.95 63.6349 184.999 73.0452C187.924 82.115 198 90.4418 198 100.502Z" fill="black"/>
    </clipPath>
    <path id="outline-metafield-badge" vector-effect="non-scaling-stroke"  d="M198 100.502C198 110.547 187.924 118.889 184.983 127.959C181.888 137.354 185.076 149.999 179.381 157.815C173.685 165.631 160.591 166.606 152.698 172.364C144.804 178.121 140.022 190.209 130.627 193.258C121.557 196.199 110.506 189.312 100.492 189.312C90.4784 189.312 79.4584 196.168 70.3422 193.258C60.9474 190.163 56.103 178.059 48.2869 172.364C40.4708 166.668 27.346 165.708 21.6039 157.815C15.8618 149.922 19.0965 137.354 16.0011 127.959C13.0604 118.889 3 110.547 3 100.502C3 90.4573 13.0604 82.115 16.0011 73.0452C19.0965 63.6349 16.0011 51.0054 21.6194 43.1738C27.2377 35.3422 40.3935 34.3826 48.3024 28.625C56.2114 22.8674 60.9629 10.795 70.3577 7.73051C79.4275 4.7898 90.4783 11.6773 100.508 11.6773C110.537 11.6773 121.573 4.7898 130.642 7.73051C140.037 10.826 144.882 22.9448 152.713 28.625C160.545 34.3052 173.639 35.2803 179.396 43.1738C185.154 51.0673 181.95 63.6349 184.999 73.0452C187.924 82.115 198 90.4418 198 100.502Z" />
  </defs>
</svg>